<?xml version="1.0" standalone="no"?>
<!DOCTYPE svg PUBLIC "-//W3C//DTD SVG 20010904//EN"
 "http://www.w3.org/TR/2001/REC-SVG-20010904/DTD/svg10.dtd">
<svg version="1.0" xmlns="http://www.w3.org/2000/svg"
 width="402.000000pt" height="402.000000pt" viewBox="0 0 402.000000 402.000000"
 preserveAspectRatio="xMidYMid meet">
<metadata>
Created by potrace 1.11, written by Peter Selinger 2001-2013
</metadata>
<g transform="translate(0.000000,402.000000) scale(0.100000,-0.100000)"
fill="#000000" stroke="none">
<path d="M2775 4010 c4 -6 11 -8 16 -5 14 9 11 15 -7 15 -8 0 -12 -5 -9 -10z"/>
<path d="M2821 4008 c4 -34 -2 -48 -21 -48 l-20 0 20 -20 c11 -11 25 -20 30
-20 6 0 19 -9 31 -21 18 -18 20 -28 14 -70 -6 -44 -9 -49 -33 -50 -21 -1 -23
-2 -7 -6 11 -3 24 -9 30 -14 5 -5 18 -9 30 -9 12 0 30 -6 41 -14 16 -13 17
-15 3 -21 -12 -4 -14 -15 -10 -43 4 -20 12 -38 19 -38 6 -1 17 -2 22 -3 6 0
10 -10 10 -21 0 -11 8 -25 19 -32 16 -9 17 -16 9 -40 -12 -35 -3 -78 17 -78 9
0 15 -10 15 -25 0 -18 5 -25 20 -25 24 0 26 -26 5 -51 -15 -15 -14 -17 8 -23
25 -6 54 -71 36 -81 -7 -5 -7 -28 1 -55 1 -3 5 4 10 15 7 16 9 17 9 3 1 -9 -4
-20 -11 -24 -8 -5 -6 -11 6 -19 9 -7 15 -23 14 -36 -2 -15 2 -24 11 -24 21 0
26 -25 4 -25 -14 0 -15 -2 -4 -9 7 -5 10 -14 7 -20 -4 -6 0 -11 8 -11 21 0 21
-36 0 -44 -14 -5 -14 -8 0 -27 9 -14 13 -33 9 -50 -3 -17 -1 -29 5 -29 13 0
21 -45 10 -63 -5 -9 -4 -18 2 -22 20 -12 10 -34 -17 -37 -21 -2 -29 -10 -36
-38 -10 -40 -31 -60 -64 -60 -13 0 -26 -7 -29 -15 -3 -8 -14 -17 -24 -20 -10
-3 -22 -19 -25 -35 -4 -17 -11 -30 -16 -30 -6 0 -8 4 -4 9 3 5 1 12 -5 16 -5
3 -10 1 -10 -5 0 -7 -8 -9 -21 -5 -15 5 -19 4 -15 -4 5 -7 -7 -12 -36 -13 -24
0 -50 -1 -58 -2 -8 -1 -20 -12 -26 -24 -7 -15 -14 -20 -18 -13 -9 14 -57 2
-73 -18 -7 -9 -13 -11 -13 -5 0 7 -12 20 -27 29 l-28 18 19 -21 c16 -19 17
-22 3 -22 -9 0 -19 5 -22 11 -7 10 -68 44 -137 74 -43 19 -44 24 -22 66 20 39
37 240 23 276 -5 15 -10 83 -11 152 -1 105 -4 130 -20 151 -10 14 -21 48 -25
75 -5 38 -16 62 -50 103 -23 30 -43 59 -43 66 0 22 -70 76 -99 76 -15 0 -52 7
-82 16 -38 12 -73 15 -119 10 -53 -5 -72 -2 -108 15 -30 15 -54 20 -78 16 -47
-8 -122 -46 -152 -79 -31 -32 -61 -102 -61 -142 -1 -16 -9 -47 -20 -70 -30
-66 -51 -199 -39 -240 9 -29 8 -41 -11 -76 -21 -40 -28 -90 -14 -104 4 -3 8
-17 10 -29 2 -12 5 -31 8 -43 4 -16 -4 -25 -39 -42 -24 -12 -60 -22 -80 -22
-36 0 -50 -20 -25 -35 7 -5 5 -11 -4 -18 -23 -19 -27 -55 -11 -99 20 -57 18
-66 -16 -73 -17 -4 -30 -12 -30 -20 0 -7 -7 -18 -15 -25 -8 -7 -12 -17 -8 -24
13 -20 16 -40 18 -143 2 -56 6 -106 9 -112 4 -7 -1 -11 -12 -11 -11 0 -19 6
-19 13 2 13 -33 128 -115 380 l-51 157 -54 31 c-30 17 -60 41 -68 53 -8 12
-41 35 -73 49 -55 26 -59 30 -71 77 -7 28 -18 56 -25 63 -7 7 -15 20 -19 30
-3 9 -12 17 -18 17 -8 0 -9 -14 -4 -47 7 -47 7 -47 -12 -30 -11 9 -25 17 -32
17 -6 0 -14 14 -18 30 -7 35 -14 42 -32 30 -9 -5 -11 -14 -6 -26 5 -11 10 -43
11 -72 2 -47 -1 -54 -26 -72 l-28 -20 -6 23 c-3 12 -6 39 -6 60 0 47 -10 47
-32 -1 -20 -44 -23 -73 -13 -119 8 -34 -2 -42 -23 -21 -9 9 -12 9 -12 -2 0
-14 115 -100 133 -100 5 0 25 -11 45 -25 20 -14 43 -25 50 -25 32 0 158 -62
176 -87 25 -34 46 -208 50 -423 2 -91 7 -177 10 -191 6 -22 4 -27 -16 -33 -17
-4 -28 0 -43 19 -25 30 -39 32 -30 6 6 -19 5 -19 -34 0 -22 10 -53 20 -68 20
-20 1 -22 3 -8 6 47 10 51 14 31 25 -15 8 -21 8 -24 0 -2 -7 -8 -12 -14 -12
-6 0 -8 6 -5 13 3 9 -6 13 -32 14 -78 2 -107 15 -102 46 2 12 -9 8 -32 -13
-19 -19 -23 -19 -33 -5 -6 8 -18 13 -27 9 -11 -4 -16 1 -19 17 -4 28 -25 36
-31 12 -4 -17 -5 -17 -6 1 -1 11 -6 16 -15 13 -8 -3 -17 1 -20 8 -3 9 -13 12
-23 9 -17 -5 -17 -5 -1 9 24 19 23 27 -4 27 -12 0 -30 8 -40 17 -18 16 -18 16
-12 0 5 -13 2 -16 -10 -11 -10 4 -16 18 -16 40 0 30 -3 34 -26 34 -14 0 -23 4
-20 9 3 4 -6 13 -19 19 -14 7 -25 16 -25 22 0 5 -7 10 -15 10 -26 0 -66 32
-61 47 4 9 -6 21 -24 31 -16 9 -30 24 -30 33 0 9 -7 22 -15 29 -8 7 -15 9 -15
5 0 -4 -7 -2 -15 5 -8 7 -15 21 -15 31 0 11 -5 19 -12 19 -6 0 -28 18 -49 40
-21 22 -43 40 -49 40 -5 0 -10 10 -10 22 0 20 -45 108 -55 108 -3 0 -5 -615
-5 -1366 l0 -1366 198 4 c164 4 207 8 257 25 33 11 83 24 110 27 81 11 209 37
220 46 6 4 35 13 65 19 30 6 79 21 109 33 l54 22 24 -28 c19 -22 30 -27 60
-24 46 4 54 -18 23 -62 -25 -35 -55 -39 -63 -9 -5 17 -10 20 -29 14 -13 -4
-48 -9 -78 -11 -30 -2 -58 -3 -61 -4 -4 0 -9 -11 -12 -25 l-4 -26 81 3 c44 1
84 7 88 13 5 6 8 6 8 -2 0 -10 27 -13 100 -13 87 0 101 2 106 18 3 9 10 25 15
35 7 13 5 19 -6 23 -8 4 -15 10 -15 15 0 14 44 11 65 -5 17 -13 18 -16 5 -42
-8 -16 -16 -33 -18 -37 -5 -10 288 -7 347 3 25 5 50 15 57 24 6 9 19 16 28 16
9 0 21 11 27 24 14 31 59 44 75 22 15 -22 22 -20 27 7 3 21 4 21 15 -7 12 -27
15 -28 57 -21 28 4 45 2 45 -4 0 -11 -61 -31 -95 -31 -11 -1 -38 -9 -60 -20
l-40 -19 116 -1 c132 0 179 7 179 26 0 16 -52 54 -74 54 -9 0 -16 8 -16 20 0
19 6 20 65 18 35 -1 67 1 70 4 4 3 -7 24 -23 47 -16 22 -32 37 -36 33 -4 -3
-4 1 0 11 3 9 17 17 29 17 13 0 26 4 29 9 10 15 55 19 73 5 24 -18 33 -17 33
1 0 10 10 15 32 15 30 0 31 -1 12 -15 -19 -14 -19 -14 3 -15 12 0 24 4 27 8 3
5 58 3 123 -5 65 -7 124 -11 131 -8 6 2 12 0 12 -5 0 -6 -13 -10 -30 -10 -16
0 -30 -5 -30 -10 0 -6 -11 -8 -27 -4 -25 6 -26 5 -11 -7 16 -13 16 -15 -1 -38
l-19 -25 5 28 c5 27 5 27 -17 14 -12 -7 -28 -26 -36 -43 l-13 -30 -1 38 c0 37
-22 53 -33 25 -4 -10 -6 -10 -6 0 -1 18 -26 14 -46 -8 -10 -11 -31 -20 -47
-20 -35 0 -36 -12 -2 -39 22 -17 23 -22 13 -40 -10 -15 -10 -22 0 -35 11 -13
51 -16 294 -15 212 0 277 3 269 11 -20 20 -13 38 13 38 16 0 25 -6 25 -15 0
-8 7 -15 15 -15 8 0 15 -4 15 -10 0 -5 13 -10 28 -10 24 0 31 6 45 40 15 38
17 40 36 28 12 -7 21 -19 21 -26 0 -10 8 -12 30 -7 17 4 30 2 30 -3 0 -15 29
-23 99 -29 44 -3 61 -1 57 6 -5 7 8 11 39 11 27 0 44 -4 40 -10 -3 -6 125 -9
345 -9 l350 -1 0 205 c0 230 -1 234 -65 196 -20 -12 -43 -21 -52 -21 -8 0 -28
-9 -44 -21 -17 -12 -54 -27 -84 -34 -49 -11 -54 -11 -58 6 -4 16 1 19 36 19
23 0 53 7 67 15 14 8 41 22 60 32 73 37 90 57 90 107 0 40 4 48 25 58 14 6 25
20 25 31 0 15 -5 18 -25 14 -16 -3 -24 0 -22 7 2 6 13 12 25 14 l22 3 0 1695
0 1694 -600 0 c-475 0 -601 -3 -599 -12z m99 -193 c0 -8 -4 -15 -10 -15 -5 0
-10 7 -10 15 0 8 5 15 10 15 6 0 10 -7 10 -15z m70 -145 c0 -5 -4 -10 -10 -10
-5 0 -10 5 -10 10 0 6 5 10 10 10 6 0 10 -4 10 -10z m-1223 -1012 c-3 -8 -6
-5 -6 6 -1 11 2 17 5 13 3 -3 4 -12 1 -19z m-270 -50 c-3 -8 -6 -5 -6 6 -1 11
2 17 5 13 3 -3 4 -12 1 -19z m303 13 c0 -5 -6 -11 -12 -13 -9 -3 -8 -9 5 -22
24 -24 21 -41 -6 -42 -21 -2 -24 3 -24 35 0 33 10 50 30 51 4 0 7 -4 7 -9z
m-42 -89 c6 -18 -15 -14 -22 4 -4 10 -1 14 6 12 6 -2 14 -10 16 -16z m943
-185 c-10 -9 -11 -8 -5 6 3 10 9 15 12 12 3 -3 0 -11 -7 -18z m-31 -47 c-6
-11 -15 -20 -20 -20 -14 0 -12 6 6 24 21 22 27 20 14 -4z m-159 -71 c-5 -13
-10 -19 -10 -12 -1 15 10 45 15 40 3 -2 0 -15 -5 -28z m-710 -21 c26 -34 28
-39 9 -23 -29 24 -49 47 -50 58 0 14 9 6 41 -35z m779 3 c0 -5 -11 -16 -25
-25 -14 -9 -23 -21 -20 -25 2 -5 -6 -11 -20 -13 -29 -6 -34 8 -6 17 11 3 26
17 35 30 16 25 36 33 36 16z m-412 -43 c-4 -12 -78 -41 -86 -34 -4 5 67 45 81
46 5 0 7 -5 5 -12z m-298 -58 c20 -6 21 -8 5 -8 -11 0 -29 3 -40 8 -25 11 1
11 35 0z m115 -30 c8 -13 -5 -13 -25 0 -13 8 -13 10 2 10 9 0 20 -4 23 -10z
m80 -10 c3 -5 -3 -10 -14 -10 -11 0 -23 5 -26 10 -3 6 3 10 14 10 11 0 23 -4
26 -10z m-885 -83 c0 -2 -13 -13 -30 -25 -22 -17 -28 -18 -23 -6 3 9 15 20 27
24 26 11 26 11 26 7z m10 -612 c0 -8 -7 -15 -16 -15 -14 0 -14 3 -4 15 7 8 14
15 16 15 2 0 4 -7 4 -15z m2720 -375 c0 -5 -2 -10 -4 -10 -3 0 -8 5 -11 10 -3
6 -1 10 4 10 6 0 11 -4 11 -10z m-3512 -66 c-3 -46 -4 -47 -16 -26 -8 14 -10
35 -6 58 9 51 26 27 22 -32z m2586 -161 c8 -27 20 -61 26 -78 7 -16 14 -41 16
-55 3 -27 -16 -46 -29 -27 -5 8 -7 5 -5 -8 2 -15 -3 -20 -25 -22 -16 -1 -39
-9 -52 -17 -13 -9 -31 -13 -39 -10 -9 3 -16 1 -16 -5 0 -18 -32 -12 -37 7 -3
13 -14 19 -34 19 -16 0 -29 -5 -29 -10 0 -5 -7 -7 -15 -4 -8 4 -17 2 -20 -3
-4 -6 -15 -10 -26 -10 -22 0 -37 -31 -41 -85 -2 -29 -6 -35 -26 -35 -17 0 -26
8 -33 30 -10 29 -30 37 -76 31 -7 -1 -9 7 -6 19 9 35 -11 21 -29 -20 -14 -33
-14 -41 -2 -51 23 -19 5 -30 -25 -14 -16 8 -30 12 -33 10 -2 -3 -19 0 -38 5
-23 7 -66 5 -144 -6 -61 -9 -119 -16 -128 -16 -10 1 -18 -3 -18 -9 0 -5 -28
-9 -61 -9 -54 0 -60 2 -49 15 7 8 18 15 24 15 17 0 86 78 86 96 0 9 7 22 15
30 8 9 15 24 15 34 0 29 36 34 76 11 19 -12 48 -21 65 -21 16 0 48 -12 70 -27
l40 -26 25 26 c14 15 31 27 38 27 8 0 19 6 25 13 6 8 30 19 53 26 23 7 58 21
77 32 20 10 43 19 52 19 9 0 22 7 29 15 13 15 51 21 49 8 -4 -22 3 -32 16 -27
8 4 12 10 9 15 -3 5 1 9 8 9 24 0 68 24 68 38 0 6 5 12 10 12 6 0 10 -9 10
-21 0 -11 5 -17 10 -14 6 3 10 15 10 26 0 24 29 37 40 18 5 -7 6 -25 3 -40 -5
-27 11 -69 26 -69 15 0 11 129 -5 144 -8 8 -14 17 -14 20 0 4 20 11 42 15 4 0
14 -20 22 -46z m-2181 17 c7 0 4 -5 -5 -11 -10 -5 -18 -17 -18 -24 0 -19 9
-19 32 2 22 20 29 15 22 -14 -4 -14 -17 -24 -35 -28 -25 -6 -28 -9 -18 -21 8
-10 16 -11 22 -5 6 6 16 6 27 -1 12 -8 25 -6 51 5 19 9 53 15 77 14 36 -3 45
-8 58 -32 14 -28 14 -31 -5 -46 -13 -11 -21 -29 -21 -48 l0 -31 -28 18 c-55
33 -87 56 -99 70 -11 13 -18 14 -55 1 -23 -7 -57 -24 -75 -36 -18 -13 -46 -26
-61 -29 -44 -11 -72 -49 -72 -97 0 -23 7 -55 15 -71 19 -37 19 -42 -5 -66 -21
-21 -50 -26 -65 -11 -6 5 -40 18 -77 30 -36 11 -75 24 -85 30 -10 5 -26 12
-37 15 -14 5 7 19 79 56 54 28 101 50 104 50 12 0 111 98 111 108 0 6 8 16 18
21 14 9 11 10 -15 8 -21 -3 -45 -17 -69 -41 -28 -28 -44 -36 -61 -33 -18 3
-23 1 -19 -9 7 -18 -25 -19 -43 -1 -11 10 -14 10 -18 0 -3 -7 -9 -13 -14 -13
-16 0 -10 22 16 56 14 18 25 37 25 42 0 5 53 13 118 17 64 4 122 11 129 17 7
5 22 7 34 3 16 -5 20 -3 17 6 -3 8 -2 21 3 30 11 21 -1 35 -33 41 -24 4 -26 3
-18 -13 8 -14 5 -19 -11 -24 -16 -5 -29 0 -48 20 l-26 27 31 -4 c17 -1 38 3
45 9 16 13 58 22 77 17 8 -2 19 -4 25 -4z m2107 0 c0 -5 -7 -10 -16 -10 -8 0
-12 5 -9 10 3 6 10 10 16 10 5 0 9 -4 9 -10z m-120 -60 c0 -5 -4 -10 -10 -10
-5 0 -10 5 -10 10 0 6 5 10 10 10 6 0 10 -4 10 -10z m-1650 -80 c0 -5 -5 -10
-11 -10 -5 0 -7 5 -4 10 3 6 8 10 11 10 2 0 4 -4 4 -10z m2796 -36 c-3 -9 -6
-22 -6 -31 0 -9 -6 -13 -15 -9 -9 3 -15 0 -15 -9 0 -8 -7 -15 -16 -15 -8 0
-20 -13 -25 -30 -6 -16 -15 -27 -20 -24 -6 3 -5 12 2 21 10 12 10 16 -2 24 -8
5 -20 7 -26 4 -20 -7 -15 6 11 30 13 12 25 28 28 36 3 8 9 11 13 7 4 -4 3 -14
-4 -22 -16 -20 16 -31 35 -12 17 18 18 33 2 39 -7 3 0 6 16 6 22 1 27 -3 22
-15z m-3326 -14 c0 -5 -4 -10 -10 -10 -5 0 -10 5 -10 10 0 6 5 10 10 10 6 0
10 -4 10 -10z m322 -52 c20 -19 24 -28 13 -28 -23 0 -55 37 -54 63 0 13 3 17
6 8 3 -8 19 -27 35 -43z m-86 0 c-19 -47 -27 -98 -16 -98 6 0 10 6 11 13 0 10
2 10 6 0 7 -18 33 -16 33 1 0 8 -6 17 -12 20 -7 2 -3 4 10 2 13 -1 27 -8 31
-15 5 -8 18 -10 37 -6 28 7 28 7 8 -8 -11 -9 -48 -21 -83 -28 -52 -11 -64 -11
-71 0 -4 8 -6 21 -3 30 5 12 3 13 -6 5 -8 -8 -9 -18 -1 -38 10 -27 10 -27 -25
-20 -30 5 -35 3 -35 -12 -1 -23 -23 -54 -39 -54 -15 0 -14 -29 4 -63 14 -27
14 -28 -8 -21 -32 9 -35 14 -37 64 -3 73 -2 75 19 51 l18 -21 7 40 c3 22 4 50
1 63 -4 18 7 30 72 75 43 28 81 52 85 52 4 0 1 -15 -6 -32z m184 2 c0 -5 -4
-10 -10 -10 -5 0 -10 5 -10 10 0 6 5 10 10 10 6 0 10 -4 10 -10z m65 0 c3 -6
-1 -7 -9 -4 -18 7 -21 14 -7 14 6 0 13 -4 16 -10z m-685 -9 c0 -5 -10 -16 -22
-24 l-23 -16 25 -1 c20 0 22 -2 10 -10 -11 -7 -21 -3 -39 16 -12 14 -20 28
-16 32 4 4 10 1 12 -5 6 -18 23 -16 23 2 0 8 7 15 15 15 8 0 15 -4 15 -9z m50
1 c0 -4 -5 -13 -12 -20 -7 -7 -16 -12 -20 -12 -13 0 -9 28 5 33 19 8 27 8 27
-1z m2360 -1 c0 -5 -7 -14 -15 -21 -12 -10 -15 -10 -15 2 0 8 3 18 7 21 9 10
23 9 23 -2z m-1620 -27 c0 -8 -4 -12 -10 -9 -5 3 -10 13 -10 21 0 8 5 12 10 9
6 -3 10 -13 10 -21z m1720 22 c0 -3 -4 -8 -10 -11 -5 -3 -10 -1 -10 4 0 6 5
11 10 11 6 0 10 -2 10 -4z m860 -6 c0 -5 -5 -10 -11 -10 -5 0 -7 5 -4 10 3 6
8 10 11 10 2 0 4 -4 4 -10z m-1053 -26 c-3 -3 -12 -4 -19 -1 -8 3 -5 6 6 6 11
1 17 -2 13 -5z m-971 -128 c-6 -33 -8 -34 -30 -25 -17 8 -29 8 -45 0 -19 -11
-21 -9 -21 14 0 17 -5 25 -17 25 -12 0 -6 11 22 40 l39 40 29 -29 c26 -25 29
-34 23 -65z m1984 67 c-1 -16 -28 -43 -44 -43 -23 0 -20 15 7 33 24 18 37 21
37 10z m-3425 -23 c8 -13 -25 -13 -45 0 -12 8 -9 10 12 10 15 0 30 -4 33 -10z
m2260 -9 c-3 -6 -11 -11 -17 -11 -6 0 -6 6 2 15 14 17 26 13 15 -4z m52 -27
c1 -31 -31 -69 -65 -77 -18 -4 -22 -2 -18 10 3 8 6 19 6 24 0 4 6 6 14 3 20
-8 48 25 41 47 -4 12 -2 19 7 19 7 0 14 -12 15 -26z m-1327 -4 c-6 -11 -21
-20 -33 -20 -12 0 -28 -9 -35 -20 -7 -12 -18 -18 -24 -14 -7 5 -5 11 6 20 10
7 15 18 11 25 -5 7 -3 10 6 7 8 -3 28 1 44 8 17 7 31 13 33 14 1 0 -2 -9 -8
-20z m537 -5 c25 -13 49 -22 53 -20 4 2 5 -7 2 -20 -2 -14 -8 -27 -12 -30 -5
-3 -6 4 -3 14 6 25 -37 41 -51 18 -8 -12 -13 -9 -28 19 -28 53 -26 54 39 19z
m-788 -24 c-15 -5 -22 6 -14 19 6 9 10 9 16 -1 5 -8 4 -15 -2 -18z m588 21
c15 -9 5 -59 -13 -66 -8 -3 -14 1 -14 10 0 9 -6 14 -12 11 -7 -2 -13 -10 -13
-19 0 -8 -8 -22 -17 -31 -19 -19 -48 -23 -48 -6 0 6 -7 9 -15 5 -8 -3 -15 -1
-15 3 0 5 7 11 15 15 9 3 15 18 15 34 0 20 7 32 23 40 26 12 77 15 94 4z
m1243 -2 c0 -5 -9 -10 -20 -10 -11 0 -20 5 -20 10 0 6 9 10 20 10 11 0 20 -4
20 -10z m-2053 -32 c7 -6 10 -14 8 -18 -7 -12 -65 -40 -64 -32 4 29 -3 40 -23
34 -21 -5 -20 3 4 35 10 13 49 3 75 -19z m1843 22 c0 -5 -5 -10 -11 -10 -5 0
-7 5 -4 10 3 6 8 10 11 10 2 0 4 -4 4 -10z m-620 -10 c0 -7 7 -7 20 0 31 17
62 3 54 -23 -3 -12 -11 -26 -18 -32 -7 -5 -15 -18 -19 -27 -5 -15 -19 -18 -72
-18 -57 0 -65 2 -65 19 0 10 9 21 20 24 13 3 20 14 20 29 0 14 3 28 7 31 10
11 53 8 53 -3z m775 -11 c8 -24 1 -34 -19 -26 -9 4 -12 14 -9 26 7 27 20 27
28 0z m207 8 c42 -15 78 -44 78 -64 0 -16 -5 -16 -29 -1 -15 9 -26 8 -54 -5
-19 -9 -46 -17 -59 -17 -22 1 -22 1 -4 15 13 10 17 23 14 49 -4 40 0 42 54 23z
m-2747 -17 c3 -5 2 -10 -4 -10 -5 0 -13 5 -16 10 -3 6 -2 10 4 10 5 0 13 -4
16 -10z m97 -19 c-2 -8 3 -11 10 -8 8 2 27 -1 43 -8 l30 -13 -43 -1 c-29 -1
-44 4 -48 14 -4 8 -15 15 -25 15 -10 0 -19 5 -19 11 0 6 12 9 28 7 16 -2 26
-8 24 -17z m2243 -22 c4 -13 1 -27 -10 -39 -16 -18 -16 -19 3 -31 23 -15 18
-39 -8 -39 -10 0 -21 -8 -24 -17 -3 -10 -3 4 -1 31 3 27 12 58 21 68 14 14 14
20 4 33 -8 9 -8 15 -2 15 6 0 14 -9 17 -21z m-460 -9 c3 -5 -3 -10 -15 -10
-12 0 -18 5 -15 10 3 6 10 10 15 10 5 0 12 -4 15 -10z m1113 -2 c9 -9 8 -16
-5 -30 -22 -25 -43 -23 -43 5 0 37 24 49 48 25z m-518 -28 c-18 -11 -24 -6
-16 16 5 14 9 15 19 5 9 -9 9 -14 -3 -21z m-1706 -6 c21 -21 20 -24 -9 -24
-18 0 -25 5 -25 20 0 24 13 26 34 4z m466 -8 c0 -23 -13 -56 -21 -56 -5 0 -9
7 -9 17 0 15 -2 15 -19 -1 -13 -11 -21 -14 -26 -7 -3 6 1 14 10 17 13 5 14 8
3 15 -10 6 -9 11 6 22 21 16 56 11 56 -7z m1330 -30 c0 -16 -18 -3 -28 19 -17
37 -15 41 8 12 11 -14 20 -28 20 -31z m63 28 c-8 -21 -33 -17 -33 5 0 14 5 18
19 14 12 -3 17 -11 14 -19z m-1760 -6 c10 -8 15 -21 11 -34 -5 -18 -11 -20
-62 -17 -67 5 -82 9 -82 22 0 6 15 7 35 4 29 -5 34 -3 29 10 -4 11 2 17 18 20
13 2 26 5 29 6 3 0 13 -5 22 -11z m562 -3 l50 -14 -70 2 -70 2 -2 -35 c0 -19
-5 -51 -11 -70 l-9 -35 -12 28 c-6 16 -11 43 -11 62 0 26 6 37 33 54 38 25 38
25 102 6z m286 5 c24 0 38 -4 34 -10 -3 -5 -28 -10 -56 -10 -38 0 -49 3 -49
16 0 11 5 14 16 10 9 -3 34 -6 55 -6z m1129 -31 c0 -10 -4 -19 -10 -19 -5 0
-10 12 -10 26 0 14 4 23 10 19 6 -3 10 -15 10 -26z m-1231 -9 c6 8 14 11 18 6
4 -5 2 -11 -4 -13 -18 -6 -16 -42 2 -49 8 -4 15 -13 15 -21 0 -23 -19 -5 -40
40 -21 43 -26 62 -10 37 9 -13 11 -13 19 0z m-687 -42 c-13 -13 -24 5 -16 27
7 16 8 16 17 0 6 -11 6 -20 -1 -27z m220 27 c0 -5 -5 -11 -11 -13 -6 -2 -11 4
-11 13 0 9 5 15 11 13 6 -2 11 -8 11 -13z m1486 -29 c3 -11 -4 -16 -22 -16
-21 0 -25 4 -24 24 2 19 6 22 23 16 11 -4 21 -15 23 -24z m-1425 -43 c-6 -42
-23 -51 -23 -12 0 21 19 63 25 57 2 -2 1 -22 -2 -45z m338 37 c5 0 9 -4 9 -9
0 -4 -11 -6 -25 -3 -14 2 -25 9 -25 14 0 6 7 7 16 4 9 -3 20 -6 25 -6z m523
-35 c-4 -8 -11 -15 -16 -15 -6 0 -5 6 2 15 7 8 14 15 16 15 2 0 1 -7 -2 -15z
m-1145 -26 c-19 -12 -39 -11 -39 1 0 15 44 30 49 18 2 -6 -3 -14 -10 -19z
m1339 19 c-6 -16 -59 -29 -73 -18 -7 6 -15 7 -18 3 -4 -3 -7 -1 -7 5 0 14 18
20 63 21 26 1 37 -3 35 -11z m77 2 c-3 -5 -13 -10 -21 -10 -8 0 -14 5 -14 10
0 6 9 10 21 10 11 0 17 -4 14 -10z m541 -37 c-11 -11 -17 4 -9 23 7 18 8 18
11 1 2 -10 1 -21 -2 -24z m-1636 17 c0 -5 -2 -10 -4 -10 -3 0 -8 5 -11 10 -3
6 -1 10 4 10 6 0 11 -4 11 -10z m860 0 c0 -5 -5 -10 -11 -10 -5 0 -7 5 -4 10
3 6 8 10 11 10 2 0 4 -4 4 -10z m520 -32 c0 -16 -3 -19 -11 -11 -6 6 -8 16 -5
22 11 17 16 13 16 -11z m-1710 -12 c0 -16 -18 -31 -27 -22 -8 8 5 36 17 36 5
0 10 -6 10 -14z m1160 4 c0 -5 -4 -10 -9 -10 -6 0 -13 5 -16 10 -3 6 1 10 9
10 9 0 16 -4 16 -10z m820 0 c0 -5 -6 -10 -14 -10 -8 0 -18 5 -21 10 -3 6 3
10 14 10 12 0 21 -4 21 -10z m334 1 c3 -5 -13 -11 -37 -15 -23 -4 -57 -9 -76
-13 -24 -4 -32 -2 -27 6 4 6 16 11 27 11 10 0 19 5 19 10 0 12 87 13 94 1z"/>
<path d="M2618 643 c7 -3 16 -2 19 1 4 3 -2 6 -13 5 -11 0 -14 -3 -6 -6z"/>
<path d="M2830 600 c0 -5 9 -10 20 -10 11 0 20 5 20 10 0 6 -9 10 -20 10 -11
0 -20 -4 -20 -10z"/>
<path d="M2880 590 c0 -5 5 -10 10 -10 6 0 10 5 10 10 0 6 -4 10 -10 10 -5 0
-10 -4 -10 -10z"/>
<path d="M2350 508 c0 -28 19 -58 26 -42 3 7 14 10 24 7 11 -3 20 0 20 6 0 6
-7 11 -15 11 -8 0 -15 3 -15 8 0 4 -9 13 -20 20 -18 11 -20 10 -20 -10z"/>
<path d="M570 464 c0 -8 5 -12 10 -9 6 4 8 11 5 16 -9 14 -15 11 -15 -7z"/>
<path d="M378 413 c7 -3 16 -2 19 1 4 3 -2 6 -13 5 -11 0 -14 -3 -6 -6z"/>
<path d="M1530 280 c0 -5 5 -10 10 -10 6 0 10 5 10 10 0 6 -4 10 -10 10 -5 0
-10 -4 -10 -10z"/>
<path d="M1120 200 c0 -5 7 -10 15 -10 8 0 15 5 15 10 0 6 -7 10 -15 10 -8 0
-15 -4 -15 -10z"/>
<path d="M2830 3710 c0 -5 5 -10 11 -10 5 0 7 5 4 10 -3 6 -8 10 -11 10 -2 0
-4 -4 -4 -10z"/>
<path d="M2950 3559 c0 -5 5 -7 10 -4 6 3 10 8 10 11 0 2 -4 4 -10 4 -5 0 -10
-5 -10 -11z"/>
<path d="M3055 3291 c-6 -11 9 -23 19 -14 9 9 7 23 -3 23 -6 0 -12 -4 -16 -9z"/>
<path d="M3055 3171 c-3 -5 -1 -12 5 -16 5 -3 10 1 10 9 0 18 -6 21 -15 7z"/>
<path d="M625 2987 c-17 -37 -17 -78 0 -78 9 0 28 102 20 109 -2 2 -11 -12
-20 -31z"/>
<path d="M3150 2820 c0 -5 5 -10 10 -10 6 0 10 5 10 10 0 6 -4 10 -10 10 -5 0
-10 -4 -10 -10z"/>
<path d="M2960 2655 c0 -8 7 -15 16 -15 14 0 14 3 4 15 -7 8 -14 15 -16 15 -2
0 -4 -7 -4 -15z"/>
<path d="M830 2070 c0 -5 5 -10 10 -10 6 0 10 5 10 10 0 6 -4 10 -10 10 -5 0
-10 -4 -10 -10z"/>
<path d="M2368 217 c19 -6 31 -15 28 -23 -8 -20 6 -25 20 -6 18 25 -1 42 -45
41 l-36 -1 33 -11z"/>
<path d="M2090 206 c0 -2 7 -9 15 -16 12 -10 15 -10 15 4 0 9 -7 16 -15 16 -8
0 -15 -2 -15 -4z"/>
<path d="M2265 182 c-15 -12 -25 -26 -21 -29 3 -3 14 1 23 9 10 9 28 19 41 22
12 4 22 11 22 16 0 16 -38 6 -65 -18z"/>
<path d="M2130 173 c1 -22 80 -74 80 -53 0 6 -3 10 -7 10 -5 0 -21 11 -37 25
-31 27 -36 29 -36 18z"/>
<path d="M2127 113 c-13 -12 -7 -23 22 -37 16 -9 31 -25 34 -37 5 -18 2 -20
-18 -17 -16 4 -22 1 -18 -9 4 -9 24 -13 67 -13 63 1 64 2 9 37 -17 11 -17 12
2 27 19 16 19 16 -7 10 -21 -5 -30 -1 -43 20 -17 25 -35 33 -48 19z"/>
<path d="M705 10 c-4 -6 12 -10 42 -10 35 0 44 3 33 10 -20 13 -67 13 -75 0z"/>
<path d="M3050 10 c-12 -8 -11 -10 8 -10 12 0 22 5 22 10 0 13 -11 13 -30 0z"/>
<path d="M518 3 c7 -3 16 -2 19 1 4 3 -2 6 -13 5 -11 0 -14 -3 -6 -6z"/>
</g>
</svg>
